<?xml version="1.0" encoding="UTF-8"?>
<svg width="89.72" height="21.35" version="1.1" viewBox="0 0 89.72 21.35" xml:space="preserve" xmlns="http://www.w3.org/2000/svg">
<path d="m15.96 17.9 0.12-0.08v-17.41h1.64v20.53l-0.94 0.21-15.02-17.66-0.12 0.04v17.41h-1.64v-20.53l0.94-0.21z"/><path d="m38.44 1.89h-11.45v7.84h10.22v1.48h-10.22v8.25h11.86v1.48h-13.5v-20.53h13.09z"/><path class="st0" d="m57.32 4.56-5.66 16.59h-0.41l-7.96-20.32 1.6-0.62 6.44 16.91h0.21l5.62-16.91h0.41l5.87 16.91h0.21l6.16-16.91 1.64 0.62-7.84 20.32h-0.41l-5.71-16.59z"/><path d="m75.85 17.41c1.56 1.4 3.94 2.42 6.69 2.42 3.94 0 5.46-1.85 5.46-3.86 0-2.14-1.72-3.53-5.38-4.97-4.93-1.89-6.69-3.33-6.69-5.95 0-2.5 2.18-5.05 6.36-5.05 2.87 0 5.58 1.35 6.98 2.67l-0.94 1.23c-1.72-1.4-3.53-2.38-6.03-2.38-3.08 0-4.64 1.6-4.64 3.41 0 1.93 1.15 2.87 5.62 4.64 4.76 1.89 6.44 3.78 6.44 6.36 0 2.92-2.18 5.42-7.22 5.42-3.32 0-6.36-1.31-7.59-2.63z"/>
</svg>
