<?xml version="1.0" encoding="UTF-8"?>
<svg width="189.84" height="21.56" version="1.1" viewBox="0 0 189.84 21.56" xml:space="preserve" xmlns="http://www.w3.org/2000/svg">
<path d="m14.69 5h-9.35v3.64h7.43v4.24h-7.43v3.65h9.65v4.6h-14.99v-20.73h14.69z"/><path d="m35.21 12.15h0.21v-11.75h5.34v20.73h-3.41l-11.17-11.78h-0.21v11.78h-5.34v-20.73h3.41z"/><path d="m46.8 21.14v-20.74h7.35c6.12 0 10.92 4.15 10.92 10.39 0 6.61-4.56 10.35-10.88 10.35zm7.76-4.6c2.91 0 5.05-2.14 5.05-5.83 0-3.57-2.79-5.71-5.09-5.71h-2.38v11.54z"/><path d="m77.45 14.03h-2.13v7.1h-5.34v-20.73h7.63c4.72 0 8.04 2.71 8.04 7.18 0.01 2.8-2 6.45-8.2 6.45zm-0.41-9.23h-1.72v5.13h1.85c1.64 0 2.79-0.86 2.79-2.46-0.01-1.48-1.12-2.67-2.92-2.67z"/><path d="m100.25 21.55c-6.49 0-11.12-4.68-11.12-10.67 0-6.61 5.34-10.88 11.12-10.88 5.66 0 11.04 4.15 11.04 10.88 0 5.82-4.35 10.67-11.04 10.67zm-0.04-16.88c-2.83 0-5.58 2.22-5.58 6.12 0 3.16 1.93 6.08 5.71 6.08 3.04 0 5.5-2.26 5.5-6.08-0.01-3.65-2.59-6.12-5.63-6.12z"/><path d="m121.84 21.14h-5.34v-20.74h5.34z"/><path d="m142.56 12.15h0.21v-11.75h5.34v20.73h-3.41l-11.17-11.78h-0.21v11.78h-5.34v-20.73h3.41z"/><path d="m163.91 5v16.13h-5.34v-16.13h-6.24v-4.6h17.81v4.6z"/><path d="m174.98 14.86c1.81 1.15 4.23 2.18 6.61 2.18 1.93 0 2.71-0.86 2.71-1.68 0-1.23-1.36-1.72-4.02-2.96-4.19-1.97-5.95-3.49-5.95-6.45s2.5-5.95 7.63-5.95c2.87 0 5.42 0.78 7.31 1.97l-1.23 4.27c-2.09-1.11-4.1-1.72-6.03-1.72-1.56 0-2.26 0.66-2.26 1.44 0 0.86 0.86 1.36 4.06 2.83 4.52 2.09 6.03 3.98 6.03 6.82 0 3.9-3.53 5.95-8.5 5.95-3.57 0-6.61-1.23-7.84-2.38z"/>
</svg>
