<svg xmlns="http://www.w3.org/2000/svg" width="192" height="31" fill="none"><path fill="#000" d="M10.421 30.44 0 .815h5.403l7.983 23.745L21.399.814h5.363L16.34 30.441h-5.918ZM29.595 5.257c-1.164-1.188-1.164-2.965 0-4.104a2.918 2.918 0 0 1 4.199 0c1.153 1.139 1.153 2.926-.04 4.104-1.154 1.139-2.955 1.139-4.16 0Zm-.213 25.184V9.27h4.634v21.17h-4.634ZM42.545 30.44V13.686H37.81V9.281h4.735v-5.93h4.634v5.92h4.533v4.404H47.18v16.766h-4.634ZM72.596 9.282h4.634V30.45h-4.634v-3.046C70.836 29.822 68.346 31 65.088 31c-2.954 0-5.443-1.058-7.547-3.215-2.105-2.157-3.127-4.823-3.127-7.919 0-3.135 1.032-5.761 3.127-7.918 2.104-2.157 4.593-3.216 7.547-3.216 3.258 0 5.747 1.189 7.508 3.555V9.282Zm-6.78 17.354c1.933 0 3.563-.639 4.847-1.907 1.285-1.308 1.933-2.916 1.933-4.873 0-1.957-.648-3.555-1.933-4.823-1.284-1.308-2.913-1.947-4.846-1.947-1.933 0-3.562.64-4.846 1.947-1.285 1.268-1.933 2.876-1.933 4.823 0 1.947.648 3.555 1.933 4.873 1.284 1.268 2.924 1.907 4.846 1.907ZM94.36.814c4.117 0 7.547 1.438 10.249 4.274 2.742 2.836 4.118 6.35 4.118 10.544 0 4.144-1.376 7.66-4.118 10.545-2.702 2.836-6.132 4.274-10.25 4.274H82.562V.814h11.797Zm0 24.974c2.832 0 5.15-.969 6.91-2.876 1.801-1.907 2.701-4.364 2.701-7.28 0-2.965-.9-5.372-2.701-7.279-1.76-1.907-4.078-2.876-6.91-2.876H87.5v20.32h6.86v-.01ZM127.941 19.906l-4.755-13.38-4.766 13.38-1.629 4.564-2.104 5.97h-5.363L120.221.815h5.919l10.857 29.627h-5.322l-2.105-5.971M153.165 30.99c-4.331 0-8.024-1.478-11.069-4.444-3.006-3.005-4.503-6.65-4.503-10.924 0-4.274 1.497-7.918 4.503-10.874 3.045-3.006 6.738-4.483 11.069-4.483 4.33 0 8.023 1.478 11.018 4.483 3.046 2.966 4.543 6.6 4.543 10.874 0 4.274-1.497 7.919-4.543 10.924-2.995 2.966-6.688 4.444-11.018 4.444Zm0-4.733c3.005 0 5.534-1.019 7.548-3.006 2.054-2.027 3.086-4.573 3.086-7.619 0-3.045-1.032-5.592-3.086-7.579-2.014-2.027-4.543-3.045-7.548-3.045s-5.535 1.018-7.589 3.045c-2.013 1.987-3.045 4.534-3.045 7.58 0 3.045 1.032 5.591 3.045 7.618 2.054 1.987 4.584 3.006 7.589 3.006Z"/><path fill="#FFDD35" d="m174.98.674.192.13c3.481 2.427 8.135 2.427 11.605-.02 2.874-2.017 6.516 1.228 4.766 4.254l-5.97 10.315c-2.054 3.555-7.244 3.555-9.308 0l-6.03-10.425c-1.751-3.006 1.871-6.26 4.745-4.254Z"/></svg>