<?xml version="1.0" encoding="UTF-8"?>
<svg width="177.18" height="28.8" version="1.1" xmlns="http://www.w3.org/2000/svg"><path d="m171.98 17.345-0.192-0.13c-3.481-2.427-8.135-2.427-11.605 0.02-2.874 2.017-6.516-1.228-4.766-4.254l5.97-10.315c2.054-3.555 7.244-3.555 9.308 0l6.03 10.425c1.751 3.006-1.871 6.26-4.745 4.254z" fill="#800000"/><path d="m0 0.4h5.8l7.2 21.6h0.8l7.2-21.6h5.8l-9.6 28h-7.6zm29.6 7.6h5v20.4h-5zm-0.2-8h5.4v4.8h-5.4zm12 12.8h-3.2v-4.8h3.2v-5.8h5v5.8h4.6v4.8h-4.6v9.8q0 1.4 1.4 1.4h3.2v4.4h-4.4q-2.56 0-3.88-1.24-1.32-1.28-1.32-3.56zm25.6 13.6h-0.2q-0.56 0.68-1.4 1.2-0.72 0.44-1.8 0.8-1.08 0.4-2.6 0.4-1.72 0-3.12-0.48-1.36-0.52-2.32-1.36t-1.48-1.96q-0.48-1.12-0.48-2.4 0-3 2.08-4.88 2.12-1.92 6.32-1.92h4.6v-0.4q0-1.68-0.96-2.72-0.96-1.08-2.64-1.08-0.84 0-1.48 0.24t-1.08 0.64q-0.44 0.36-0.72 0.84-0.24 0.44-0.32 0.88h-5q0.16-1.28 0.76-2.44 0.6-1.2 1.64-2.12 1.08-0.92 2.6-1.48 1.56-0.56 3.6-0.56 1.96 0 3.52 0.6 1.6 0.6 2.72 1.68 1.12 1.04 1.72 2.48 0.64 1.4 0.64 3.04v13h-4.2zm-0.4-6.8h-4.2q-1.96 0-2.88 0.72-0.92 0.68-0.92 1.88t0.84 1.92q0.84 0.68 2.36 0.68 2.28 0 3.52-1.24 1.28-1.24 1.28-3.36zm10.4-19.2h10.2q2.84 0 5.32 1.08 2.48 1.04 4.32 2.92t2.88 4.44q1.08 2.56 1.08 5.56t-1.08 5.56q-1.04 2.56-2.88 4.44t-4.32 2.96q-2.48 1.04-5.32 1.04h-10.2zm10.2 23q1.8 0 3.32-0.64 1.56-0.64 2.68-1.8 1.12-1.2 1.76-2.84 0.64-1.68 0.64-3.72t-0.64-3.68q-0.64-1.68-1.76-2.84-1.12-1.2-2.68-1.84-1.52-0.64-3.32-0.64h-5v18zm18.4-23h18.8v4.8h-13.6v6.8h12.8v4.8h-12.8v6.8h13.6v4.8h-18.8zm21.2 0h5.8l7.2 21.6h0.8l7.2-21.6h5.8l-9.6 28h-7.6z" aria-label="VitaDEV"/></svg>
