<svg xmlns="http://www.w3.org/2000/svg" width="325" height="325" fill="none"><circle cx="162.5" cy="162.5" r="162.5" fill="#6255EB"/><path fill="#fff" stroke="#fff" d="M169.938 25.683h-.452c-1.144 0-2.296-.045-3.464-.091h-.006a90.468 90.468 0 0 0-3.532-.092 136.975 136.975 0 0 0-96.863 40.126 137.01 137.01 0 0 0 0 193.748 136.977 136.977 0 0 0 96.863 40.126 136.969 136.969 0 0 0 76.125-23.081 136.993 136.993 0 0 0 50.466-61.497 137.015 137.015 0 0 0-29.728-149.327 135.882 135.882 0 0 0-89.409-39.912Zm-11.839 8.307h.069l.066-.018.127-.036v71.91a249.093 249.093 0 0 1-52.781-6.458c10.875-28.975 29.194-52.411 52.436-65.398h.083ZM60.987 241.626a197.451 197.451 0 0 1 36.59-14.014c9.395 25.442 24.217 47.033 43.131 61.741a128.702 128.702 0 0 1-79.721-47.727Zm96.899 49.282-.014-.009-.015-.008c-23.145-13.004-41.415-36.409-52.277-65.31a249.191 249.191 0 0 1 52.781-6.458v72.069h-.113a2.778 2.778 0 0 0-.362-.284Zm110.989-56.007a204.863 204.863 0 0 0-37.398-14.553 188.345 188.345 0 0 0 8.828-53.755h50.75a127.995 127.995 0 0 1-22.18 68.308Zm.001-144.71a128.03 128.03 0 0 1 22.269 68.155h-50.749a188.353 188.353 0 0 0-8.778-53.6 206.743 206.743 0 0 0 37.258-14.556ZM158.36 158.345H94.492a181.684 181.684 0 0 1 8.352-51.154 256.696 256.696 0 0 0 55.486 7.052l.03 44.102Zm.001 8.247v44.253a256.496 256.496 0 0 0-55.487 6.902 180.678 180.678 0 0 1-8.382-51.155h63.869Zm8.244 0h65.392a181.844 181.844 0 0 1-8.502 51.488 257.273 257.273 0 0 0-57.009-7.235l.119-44.253Zm.001-8.247v-44.1a255.627 255.627 0 0 0 57.01-7.265 181.139 181.139 0 0 1 8.382 51.365h-65.392Zm62.219-61.428a168.795 168.795 0 0 0-7.624-17.25 130.655 130.655 0 0 0-35.106-43.716 128.916 128.916 0 0 1 77.732 47.452 197.352 197.352 0 0 1-35.002 13.514Zm-60.444-63.171c23.244 13.047 41.563 36.365 52.468 65.25a247.36 247.36 0 0 1-54.243 6.819v-72.07h1.775Zm-63.337 46.471a159.276 159.276 0 0 0-7.476 17.1 198.073 198.073 0 0 1-36.61-13.915 128.827 128.827 0 0 1 79.813-47.736 130.69 130.69 0 0 0-35.727 44.551ZM56.092 90.19a208.4 208.4 0 0 0 38.78 14.956 188.654 188.654 0 0 0-8.657 53.2H33.822a128.002 128.002 0 0 1 22.27-68.156Zm30.123 76.403a189.696 189.696 0 0 0 8.657 53.2 208.397 208.397 0 0 0-38.78 14.926 128 128 0 0 1-22.27-68.126h52.393Zm80.391 124.447v-71.917a247.357 247.357 0 0 1 54.212 6.819c-10.828 28.535-28.852 51.726-51.689 64.7a2.943 2.943 0 0 0-.599.398h-1.924Zm19.686-2.06c18.519-14.636 33.179-35.918 42.535-60.96a196.592 196.592 0 0 1 35.153 13.516 128.74 128.74 0 0 1-77.688 47.444Z"/></svg>