<?xml version="1.0" encoding="UTF-8"?><svg id="Layer_2" xmlns="http://www.w3.org/2000/svg" viewBox="0 0 512 512"><defs><style>.cls-1,.cls-2{stroke-width:0px;}.cls-2{fill:#ffdd36;}</style></defs><g id="Layer_1-2"><path class="cls-1" d="m182.35,128.67c56.03-9.17,109.28-35.16,151.59-76.71,12.14-11.87,25.63-19.43,39.46-23.43C338.23,10.34,298.33,0,256,0,166.32,0,87.47,46.14,41.75,115.95c45.66,16.31,94.08,20.34,140.6,12.72Z"/><path class="cls-1" d="m366.41,458.16c-1.89,5.01-4.22,9.64-6.55,14.28-4.25,8.48-9.18,16.34-14.69,23.57,97.42-36.21,166.83-129.99,166.83-240.01,0-40.57-9.47-78.9-26.27-112.99-.49,1.5-.97,3-1.54,4.52l-117.78,310.64Z"/><path class="cls-2" d="m182.35,128.67c-46.52,7.61-94.94,3.58-140.6-12.72C15.38,156.2,0,204.29,0,256c0,141.38,114.61,256,256,256,31.36,0,61.4-5.66,89.17-15.99,5.51-7.23,10.44-15.09,14.69-23.57,2.32-4.64,4.65-9.27,6.55-14.28l117.78-310.64c.57-1.51,1.05-3.01,1.54-4.52-24.22-49.14-63.73-89.35-112.33-114.48-13.83,4.01-27.32,11.57-39.46,23.43-42.32,41.55-95.57,67.54-151.59,76.71Zm26.53,97.28c-14.39,1.14-27.11,10.02-33.19,23.17l-17.87-8.26c9.06-19.6,28.03-32.84,49.5-34.54,21.47-1.7,42.29,8.38,54.32,26.31l-16.35,10.97c-8.07-12.03-22.03-18.8-36.42-17.66Zm111.5,118.96c-27.81,4.8-54.63-7.26-69.99-28.79l126.27-21.8c-7.25,25.43-28.48,45.79-56.28,50.59Zm48.19-140.41c2.25-11.39,13.31-18.79,24.7-16.54,11.39,2.25,18.79,13.31,16.54,24.7-2.25,11.39-13.31,18.79-24.7,16.54-11.39-2.25-18.79-13.31-16.54-24.7Z"/><path class="cls-1" d="m207.33,206.32c-21.48,1.7-40.44,14.93-49.5,34.54l17.87,8.26c6.08-13.15,18.79-22.03,33.19-23.17,14.39-1.14,28.35,5.63,36.42,17.66l16.35-10.97c-12.03-17.93-32.85-28.01-54.32-26.31Z"/><path class="cls-1" d="m320.38,344.91c27.81-4.8,49.03-25.15,56.28-50.59l-126.27,21.8c15.36,21.53,42.18,33.59,69.99,28.79Z"/><path class="cls-1" d="m385.12,229.2c11.39,2.25,22.45-5.15,24.7-16.54,2.25-11.39-5.15-22.45-16.54-24.7-11.39-2.25-22.45,5.15-24.7,16.54-2.25,11.39,5.15,22.45,16.54,24.7Z"/></g></svg>