<?xml version="1.0" encoding="UTF-8"?><svg id="Layer_2" xmlns="http://www.w3.org/2000/svg" viewBox="0 0 512 512"><defs><style>.cls-1,.cls-2,.cls-3{stroke-width:0px;}.cls-2{fill:#3ff4d4;}.cls-3{fill:#ffbfe9;}</style></defs><g id="Layer_1-2"><path class="cls-2" d="m256,512c12.81,0,25.38-.97,37.68-2.78L62.34,283.45c-54.63-53.01-21.53-135.05,39.85-152.24,16.8-4.71,35.72-4.56,55.54,2.38l6.14,2.04c55.72,19.44,114.75,20.46,169.19,5.21,40.2-11.26,77.86-31.48,109.89-59.63C396.23,31.25,329.78,0,256,0,114.62,0,0,114.62,0,256s114.62,256,256,256Z"/><path class="cls-3" d="m163.86,135.62l-6.14-2.04c-19.82-6.93-38.73-7.08-55.54-2.38-61.38,17.2-94.48,99.24-39.85,152.24l231.34,225.77c123.51-18.23,218.32-124.64,218.32-253.22,0-67.6-26.25-129.04-69.06-174.8-32.04,28.16-69.69,48.37-109.89,59.63-54.44,15.25-113.47,14.23-169.19-5.21Zm12.42,104.15c-2.08-13.55,7.22-26.23,20.77-28.31,13.55-2.08,26.23,7.22,28.31,20.77,2.08,13.55-7.22,26.23-20.77,28.31-13.55,2.08-26.23-7.22-28.31-20.77Zm202.05-56.14c13.55-2.08,26.23,7.22,28.31,20.77,2.08,13.55-7.22,26.23-20.77,28.31-13.55,2.08-26.23-7.22-28.31-20.77s7.22-26.23,20.77-28.31Zm-108.08,200.18c-30.92-3.6-57.6-23.72-69.64-52.5l26.24-10.98c8.08,19.31,25.97,32.81,46.68,35.22,20.72,2.41,41.23-6.61,53.53-23.55l23.02,16.71c-18.33,25.25-48.92,38.7-79.84,35.1Z"/><path class="cls-1" d="m225.36,232.23c-2.08-13.55-14.75-22.85-28.31-20.77-13.55,2.08-22.85,14.75-20.77,28.31,2.08,13.55,14.75,22.85,28.31,20.77,13.55-2.08,22.85-14.75,20.77-28.31Z"/><path class="cls-1" d="m385.87,232.71c13.55-2.08,22.85-14.75,20.77-28.31-2.08-13.55-14.75-22.85-28.31-20.77-13.55,2.08-22.85,14.75-20.77,28.31s14.75,22.85,28.31,20.77Z"/><path class="cls-1" d="m273.54,355.55c-20.72-2.41-38.61-15.91-46.68-35.22l-26.24,10.98c12.04,28.78,38.72,48.9,69.64,52.5,30.92,3.6,61.51-9.85,79.84-35.1l-23.02-16.71c-12.3,16.94-32.81,25.96-53.53,23.55Z"/></g></svg>