<?xml version="1.0" encoding="UTF-8"?><svg id="Layer_2" xmlns="http://www.w3.org/2000/svg" viewBox="0 0 512 512"><defs><style>.cls-1{fill:#6256ec;}.cls-1,.cls-2{stroke-width:0px;}.cls-2{fill:#fff9af;}</style></defs><g id="Layer_1-2"><path class="cls-1" d="m302.45,4.28l13.68,162.36c.45,5.33.35,10.52.26,15.71-.91,50.26-26.55,93.2-64.12,119.38-37.7,26.28-87.13,35.45-134.84,18.74-4.74-1.66-9.48-3.28-14.18-5.46L.27,266.82c5.68,136.36,117.97,245.18,255.73,245.18s256-114.62,256-256c0-125.51-90.35-229.86-209.55-251.72Zm13.16,395.29c-30.86,3.96-61.59-9.13-80.21-34.17l22.81-16.98c12.49,16.8,33.1,25.58,53.78,22.93,20.68-2.65,38.4-16.36,46.24-35.76l26.36,10.67c-11.69,28.92-38.12,49.35-68.97,53.31Zm103.17-166.9c-4.52,12.94-18.68,19.77-31.63,15.25-12.94-4.52-19.77-18.68-15.25-31.63,4.52-12.94,18.68-19.77,31.63-15.25,12.94,4.52,19.77,18.68,15.25,31.63Z"/><path class="cls-2" d="m117.43,320.48c47.72,16.71,97.14,7.54,134.84-18.74,37.57-26.19,63.21-69.13,64.12-119.38.09-5.19.19-10.37-.26-15.71l-13.68-162.36c-15.07-2.76-30.58-4.28-46.45-4.28C114.62,0,0,114.62,0,256c0,3.63.12,7.23.27,10.82l102.98,48.19c4.69,2.19,9.44,3.8,14.18,5.46Zm64.44-87.67c4.52-12.94,18.68-19.77,31.63-15.25,12.94,4.52,19.77,18.68,15.25,31.63-4.52,12.94-18.68,19.77-31.63,15.25s-19.77-18.68-15.25-31.63Z"/><path class="cls-2" d="m311.99,371.36c-20.68,2.65-41.29-6.13-53.78-22.93l-22.81,16.98c18.62,25.03,49.36,38.13,80.21,34.17,30.86-3.96,57.29-24.38,68.97-53.31l-26.36-10.67c-7.84,19.4-25.56,33.11-46.24,35.76Z"/><path class="cls-2" d="m403.53,201.05c-12.94-4.52-27.1,2.31-31.63,15.25-4.52,12.94,2.31,27.1,15.25,31.63,12.94,4.52,27.1-2.31,31.63-15.25,4.52-12.94-2.31-27.1-15.25-31.63Z"/><circle class="cls-1" cx="205.31" cy="241" r="24.83" transform="translate(-97.55 148.76) rotate(-32.63)"/></g></svg>