<?xml version="1.0" encoding="UTF-8"?><svg id="Layer_2" xmlns="http://www.w3.org/2000/svg" viewBox="0 0 512 512"><defs><style>.cls-1,.cls-2{stroke-width:0px;}.cls-2{fill:#3ff4d4;}</style></defs><g id="Layer_1-2"><path class="cls-2" d="m130.3,478.99c19.63-17.95,37.04-38.1,51.83-60.03,37.62-55.78,58.47-122.84,57.01-193.1-.47-25.03,6.45-46.54,18.08-63.79,42.27-62.68,146.82-69.58,186.45,11.83l63.64,130.8c3.04-15.77,4.68-32.04,4.68-48.7C512,114.62,397.38,0,256,0S0,114.62,0,256c0,95.69,52.53,179.05,130.3,222.99Zm29.55-407.68c4.52-12.94,18.68-19.77,31.63-15.25,12.94,4.52,19.77,18.68,15.25,31.63-4.52,12.94-18.68,19.77-31.63,15.25-12.94-4.52-19.77-18.68-15.25-31.63Zm-45.63,76.77l16.93,6.69c-7.89,20-3.57,43.13,11.01,58.92,14.59,15.78,37.32,21.93,57.86,15.61l5.33,17.41c-7.1,2.17-14.39,3.22-21.64,3.22-20.52,0-40.66-8.46-54.93-23.89-19.3-20.9-25.02-51.5-14.57-77.96Z"/><path class="cls-1" d="m257.23,162.07c-11.64,17.26-18.55,38.76-18.08,63.79,1.45,70.27-19.4,137.32-57.01,193.1-14.79,21.93-32.2,42.07-51.83,60.03,37.14,20.98,80,33.01,125.7,33.01,124.73,0,228.57-89.22,251.32-207.3l-63.64-130.8c-39.63-81.41-144.18-74.51-186.45-11.83Zm122.12,47.5c-2.16-14.33-11.88-26.41-25.38-31.53-13.5-5.12-28.79-2.53-39.91,6.76l-12.63-15.11c16.57-13.85,39.37-17.71,59.52-10.07,20.14,7.64,34.65,25.65,37.86,47.01l-19.47,2.93Z"/><path class="cls-1" d="m175.09,102.93c12.94,4.52,27.1-2.31,31.63-15.25,4.52-12.94-2.31-27.1-15.25-31.63-12.94-4.52-27.1,2.31-31.63,15.25-4.52,12.94,2.31,27.1,15.25,31.63Z"/><path class="cls-1" d="m183.72,249.93c7.24,0,14.54-1.06,21.64-3.22l-5.33-17.41c-20.54,6.31-43.27.17-57.86-15.61-14.58-15.79-18.9-38.92-11.01-58.92l-16.93-6.69c-10.45,26.47-4.73,57.06,14.57,77.96,14.27,15.43,34.41,23.89,54.93,23.89Z"/><path class="cls-2" d="m360.95,159.62c-20.14-7.64-42.95-3.78-59.52,10.07l12.63,15.11c11.12-9.29,26.41-11.88,39.91-6.76,13.5,5.12,23.22,17.2,25.38,31.53l19.47-2.93c-3.21-21.35-17.72-39.37-37.86-47.01Z"/></g></svg>