<?xml version="1.0" encoding="UTF-8"?><svg id="Layer_2" xmlns="http://www.w3.org/2000/svg" viewBox="0 0 512 512"><defs><style>.cls-1,.cls-2{stroke-width:0px;}.cls-2{fill:#96e5ff;}</style></defs><g id="Layer_1-2"><path class="cls-2" d="m372.39,359.76c-60.31,9.87-124.86-7.5-172.5-54.95-4.73-4.71-9.49-9.38-13.87-14.7L42.41,114.91C15.63,155.37,0,203.85,0,256c0,141.38,114.61,256,256,256s251.26-110.03,255.78-247.44c-31,53.17-83.14,86-139.39,95.2Z"/><path class="cls-1" d="m199.89,304.81c47.64,47.45,112.19,64.82,172.5,54.95,56.26-9.21,108.39-42.03,139.39-95.2.09-2.85.22-5.69.22-8.56C512,114.62,397.38,0,256,0,166.77,0,88.23,45.68,42.41,114.91l143.62,175.21c4.37,5.32,9.13,9.98,13.87,14.7Zm202.36-126.33c8.77-5.01,19.95-1.95,24.95,6.82,5.01,8.77,1.95,19.95-6.82,24.95-8.77,5.01-19.95,1.95-24.95-6.82-5.01-8.77-1.95-19.95,6.82-24.95Zm-15.41,81.93c-6.31,22.13-24.78,39.85-48.98,44.02-24.2,4.18-47.54-6.32-60.9-25.05l109.88-18.97Zm-176.55-36.05c1.96-9.91,11.58-16.36,21.49-14.4,9.91,1.96,16.36,11.58,14.4,21.49-1.96,9.91-11.58,16.36-21.49,14.4-9.91-1.96-16.36-11.58-14.4-21.49Z"/><path class="cls-2" d="m337.87,304.43c24.2-4.18,42.67-21.89,48.98-44.02l-109.88,18.97c13.37,18.74,36.71,29.23,60.9,25.05Z"/><path class="cls-2" d="m420.38,210.25c8.77-5.01,11.83-16.18,6.82-24.95-5.01-8.77-16.18-11.83-24.95-6.82-8.77,5.01-11.83,16.18-6.82,24.95,5.01,8.77,16.18,11.83,24.95,6.82Z"/><circle class="cls-2" cx="228.24" cy="227.91" r="18.29" transform="translate(-70.2 350.24) rotate(-67.25)"/></g></svg>