<?xml version="1.0" encoding="UTF-8"?><svg id="Layer_2" xmlns="http://www.w3.org/2000/svg" viewBox="0 0 512 512"><defs><style>.cls-1,.cls-2{stroke-width:0px;}.cls-2{fill:#ffbfe9;}</style></defs><g id="Layer_1-2"><path class="cls-2" d="m143.28,100.08c24.65,11.09,46.99,30.06,63.67,57.99l5.27,8.52c46.94,78.45,116.09,138.3,195.97,174.24,25.16,11.32,51.38,20.26,78.3,26.67,16.34-33.71,25.51-71.53,25.51-111.5C512,114.62,397.38,0,256,0,177.9,0,108.01,35.02,61.05,90.16c27.33-4.69,56.07-1.85,82.23,9.92Zm159.95,107.19c4.04-13.1,17.93-20.45,31.04-16.41,13.1,4.04,20.45,17.93,16.41,31.04-4.04,13.1-17.93,20.45-31.04,16.41-13.1-4.04-20.45-17.93-16.41-31.04Z"/><path class="cls-1" d="m256,512c101.42,0,189.05-58.98,230.49-144.5-26.92-6.41-53.15-15.35-78.3-26.67-79.88-35.94-149.03-95.78-195.97-174.24l-5.27-8.52c-16.68-27.93-39.02-46.89-63.67-57.99-26.15-11.77-54.9-14.61-82.23-9.92C23.01,134.84,0,192.72,0,256c0,141.38,114.62,256,256,256Zm9.31-202.81c-17.62,19.72-45.6,28.78-72.71,20.98-27.12-7.81-45.99-30.36-50.43-56.43l123.14,35.45ZM106.38,176.9c4.04-13.1,17.93-20.45,31.04-16.41,13.1,4.04,20.45,17.93,16.41,31.04s-17.93,20.45-31.04,16.41c-13.1-4.04-20.45-17.93-16.41-31.04Z"/><path class="cls-2" d="m122.79,207.94c13.1,4.04,27-3.31,31.04-16.41s-3.31-27-16.41-31.04c-13.1-4.04-27,3.31-31.04,16.41s3.31,27,16.41,31.04Z"/><path class="cls-1" d="m319.64,238.31c13.1,4.04,27-3.31,31.04-16.41,4.04-13.1-3.31-27-16.41-31.04-13.1-4.04-27,3.31-31.04,16.41-4.04,13.1,3.31,27,16.41,31.04Z"/><path class="cls-2" d="m192.6,330.16c27.12,7.81,55.09-1.25,72.71-20.98l-123.14-35.45c4.43,26.07,23.31,48.62,50.43,56.43Z"/></g></svg>