<?xml version="1.0" encoding="UTF-8"?><svg id="Layer_2" xmlns="http://www.w3.org/2000/svg" viewBox="0 0 512 512"><defs><style>.cls-1{fill:#ff7764;}.cls-1,.cls-2{stroke-width:0px;}.cls-2{fill:#fff9af;}</style></defs><g id="Layer_1-2"><path class="cls-2" d="m283.12,311.97c-3.04,3.52-6.32,6.62-9.6,9.71-31.76,29.98-74.01,40.16-113.11,32.75-39.23-7.44-74.97-32.56-93.59-72.35-1.85-3.95-3.73-7.88-5.22-12.12l-40.54-115.7C7.54,185.44,0,219.84,0,256c0,141.38,114.62,256,256,256s256-114.62,256-256c0-56.74-18.49-109.14-49.73-151.58l-179.15,207.55Zm-69,132.29c-20.59-6.35-36.21-23.41-40.77-44.51l19.24-4.16c3.06,14.16,13.53,25.6,27.33,29.86,13.8,4.26,28.89.7,39.4-9.28l13.56,14.28c-15.66,14.87-38.17,20.16-58.76,13.81Zm151.27-83.74c-6.42,9.67-19.46,12.31-29.14,5.89-9.67-6.42-12.31-19.46-5.89-29.14,6.42-9.67,19.46-12.31,29.14-5.89,9.67,6.42,12.31,19.46,5.89,29.14Z"/><path class="cls-1" d="m66.83,282.08c18.62,39.79,54.36,64.91,93.59,72.35,39.1,7.42,81.34-2.77,113.11-32.75,3.28-3.09,6.56-6.19,9.6-9.71l179.15-207.55C415.67,41.11,340.65,0,256,0,150.78,0,60.43,63.5,21.07,154.25l40.54,115.7c1.49,4.24,3.37,8.17,5.22,12.12Zm73.25,7.77c6.42-9.67,19.46-12.31,29.13-5.89,9.67,6.42,12.31,19.46,5.89,29.13-6.42,9.67-19.46,12.31-29.14,5.89-9.67-6.42-12.31-19.46-5.89-29.14Z"/><path class="cls-1" d="m219.92,425.45c-13.8-4.26-24.27-15.7-27.33-29.86l-19.24,4.16c4.56,21.11,20.18,38.16,40.77,44.51,20.59,6.35,43.1,1.06,58.76-13.81l-13.56-14.28c-10.5,9.98-25.6,13.53-39.4,9.28Z"/><path class="cls-1" d="m359.5,331.39c-9.67-6.42-22.72-3.78-29.14,5.89-6.42,9.67-3.78,22.72,5.89,29.14,9.67,6.42,22.72,3.78,29.14-5.89,6.42-9.67,3.78-22.72-5.89-29.14Z"/><path class="cls-2" d="m145.97,318.98c9.67,6.42,22.72,3.78,29.14-5.89,6.42-9.67,3.78-22.72-5.89-29.13-9.67-6.42-22.72-3.78-29.13,5.89-6.42,9.67-3.78,22.72,5.89,29.14Z"/></g></svg>