<?xml version="1.0" encoding="UTF-8"?><svg id="Layer_2" xmlns="http://www.w3.org/2000/svg" viewBox="0 0 512 512"><defs><style>.cls-1{fill:#6256ec;}.cls-1,.cls-2{stroke-width:0px;}.cls-2{fill:#ffdd36;}</style></defs><g id="Layer_1-2"><path class="cls-1" d="m139.13,95.48c23.98-10.84,47.62-13.09,69.12-9.01,78.08,14.81,128.14,112.93,65.96,184.99l-166.63,193.05c41.87,29.86,93.08,47.49,148.43,47.49,141.38,0,256-114.62,256-256S397.38,0,256,0C162.82,0,81.3,49.79,36.52,124.2c34.89-4.2,69.5-13.68,102.62-28.73Zm210.62,119.63c2.25-11.39,13.31-18.79,24.7-16.54,11.39,2.25,18.79,13.31,16.54,24.7-2.25,11.39-13.31,18.79-24.7,16.54-11.39-2.25-18.79-13.31-16.54-24.7Zm-20.44,111.53l17.97,8.04c-8.82,19.71-27.62,33.18-49.07,35.15-21.45,1.97-42.39-7.86-54.65-25.64l16.21-11.17c8.22,11.93,22.26,18.52,36.64,17.21,14.38-1.32,26.99-10.35,32.9-23.58Z"/><path class="cls-2" d="m208.25,86.47c-21.5-4.08-45.13-1.83-69.12,9.01-33.11,15.05-67.72,24.53-102.62,28.73C13.35,162.71,0,207.79,0,256c0,86.03,42.48,162.1,107.57,208.51l166.63-193.05c62.18-72.06,12.12-170.18-65.96-184.99Zm-11.28,165.39c-2.25,11.39-13.31,18.79-24.7,16.54-11.39-2.25-18.79-13.31-16.54-24.7,2.25-11.39,13.31-18.79,24.7-16.54,11.39,2.25,18.79,13.31,16.54,24.7Z"/><path class="cls-2" d="m259.77,333.01l-16.21,11.17c12.25,17.78,33.19,27.6,54.65,25.64,21.45-1.97,40.26-15.43,49.07-35.15l-17.97-8.04c-5.91,13.23-18.52,22.26-32.9,23.58-14.38,1.32-28.42-5.27-36.64-17.21Z"/><path class="cls-2" d="m366.29,239.81c11.39,2.25,22.45-5.15,24.7-16.54,2.25-11.39-5.15-22.45-16.54-24.7-11.39-2.25-22.45,5.15-24.7,16.54-2.25,11.39,5.15,22.45,16.54,24.7Z"/><path class="cls-1" d="m180.43,227.16c-11.39-2.25-22.45,5.15-24.7,16.54-2.25,11.39,5.15,22.44,16.54,24.7,11.39,2.25,22.45-5.15,24.7-16.54,2.25-11.39-5.15-22.44-16.54-24.7Z"/></g></svg>