<?xml version="1.0" encoding="UTF-8"?><svg id="Layer_2" xmlns="http://www.w3.org/2000/svg" viewBox="0 0 512 512"><defs><style>.cls-1{fill:#6256ec;}.cls-1,.cls-2{stroke-width:0px;}.cls-2{fill:#d3ff77;}</style></defs><g id="Layer_1-2"><path class="cls-2" d="m165.35,495.43c-.22-.96-.5-1.89-.69-2.87l-63.36-329.68c-14.59-74.71,59.44-123.16,119.64-102.23,16.48,5.73,31.92,16.65,44.24,33.66l3.87,5.18c34.64,47.78,82.52,82.32,135.92,100.88,33.1,11.51,68.33,16.85,103.86,15.43C489.54,93.52,383.7,0,256,0,114.61,0,0,114.62,0,256c0,109.46,68.72,202.82,165.35,239.43ZM380.15,118.1c13.55-2.08,26.23,7.22,28.31,20.77,2.08,13.55-7.22,26.23-20.77,28.31s-26.23-7.22-28.31-20.77c-2.08-13.55,7.22-26.23,20.77-28.31Z"/><path class="cls-1" d="m404.98,200.37c-53.4-18.56-101.28-53.11-135.92-100.88l-3.87-5.18c-12.31-17.01-27.75-27.93-44.24-33.66-60.21-20.93-134.23,27.52-119.64,102.23l63.36,329.68c.19.98.46,1.91.69,2.87,28.18,10.68,58.72,16.57,90.65,16.57,141.38,0,256-114.62,256-256,0-13.68-1.1-27.1-3.17-40.2-35.52,1.42-70.75-3.92-103.86-15.43Zm-198.56-5.36c-13.55,2.08-26.23-7.22-28.31-20.77-2.08-13.55,7.22-26.23,20.77-28.31,13.55-2.08,26.23,7.22,28.31,20.77,2.08,13.55-7.22,26.23-20.77,28.31Zm117.37,96.09c-29.86,5.79-59.02-6.62-76.05-29.48l135.59-26.28c-7.25,27.57-29.68,49.97-59.53,55.75Z"/><path class="cls-2" d="m198.88,145.93c-13.55,2.08-22.85,14.75-20.77,28.31,2.08,13.55,14.75,22.85,28.31,20.77,13.55-2.08,22.85-14.75,20.77-28.31-2.08-13.55-14.75-22.85-28.31-20.77Z"/><path class="cls-1" d="m387.69,167.18c13.55-2.08,22.85-14.75,20.77-28.31-2.08-13.55-14.75-22.85-28.31-20.77-13.55,2.08-22.85,14.75-20.77,28.31,2.08,13.55,14.75,22.85,28.31,20.77Z"/><path class="cls-2" d="m323.78,291.1c29.86-5.79,52.28-28.19,59.53-55.75l-135.59,26.28c17.03,22.86,46.2,35.26,76.05,29.48Z"/></g></svg>