<?xml version="1.0" encoding="UTF-8"?><svg id="Layer_2" xmlns="http://www.w3.org/2000/svg" viewBox="0 0 512 512"><defs><style>.cls-1,.cls-2{stroke-width:0px;}.cls-2{fill:#ffdd36;}</style></defs><g id="Layer_1-2"><path class="cls-2" d="m81.22,224.03c84.69-23.73,162.22-72.88,220.24-144.1,20.72-25.33,45.81-40.9,72.01-48.24,1.37-.38,2.75-.67,4.13-1.01C341.42,11.12,300.01,0,256,0,120.45,0,9.57,105.38.65,238.67c27.3-2.37,54.28-7.28,80.57-14.64Z"/><path class="cls-1" d="m301.46,79.92c-58.03,71.23-135.55,120.38-220.24,144.1-26.29,7.37-53.27,12.28-80.57,14.64-.38,5.73-.65,11.5-.65,17.33,0,141.38,114.62,256,256,256s256-114.62,256-256c0-97.37-54.37-182.04-134.4-225.32-1.37.34-2.76.62-4.13,1.01-26.2,7.34-51.29,22.91-72.01,48.24Zm-111.79,215.68c-13.55,2.08-26.23-7.22-28.31-20.77-2.08-13.55,7.22-26.23,20.77-28.31,13.55-2.08,26.23,7.22,28.31,20.77,2.08,13.55-7.22,26.23-20.77,28.31Zm126.44,92.34c-27.81,4.8-54.63-7.26-69.99-28.79l126.27-21.8c-7.25,25.43-28.48,45.79-56.28,50.59Zm90.53-158.71c2.08,13.55-7.22,26.23-20.77,28.31-13.55,2.08-26.23-7.22-28.31-20.77-2.08-13.55,7.22-26.23,20.77-28.31,13.55-2.08,26.23,7.22,28.31,20.77Z"/><path class="cls-2" d="m182.14,246.52c-13.55,2.08-22.85,14.75-20.77,28.31,2.08,13.55,14.75,22.85,28.31,20.77,13.55-2.08,22.85-14.75,20.77-28.31-2.08-13.55-14.75-22.85-28.31-20.77Z"/><path class="cls-2" d="m357.56,236.77c2.08,13.55,14.75,22.85,28.31,20.77,13.55-2.08,22.85-14.75,20.77-28.31-2.08-13.55-14.75-22.85-28.31-20.77-13.55,2.08-22.85,14.75-20.77,28.31Z"/><path class="cls-2" d="m316.11,387.94c27.81-4.8,49.03-25.15,56.28-50.59l-126.27,21.8c15.36,21.53,42.18,33.59,69.99,28.79Z"/></g></svg>